<?xml version="1.0" encoding="utf-8"?>
<!-- Svg Vector Icons : http://www.onlinewebfonts.com/icon -->
<!DOCTYPE svg PUBLIC "-//W3C//DTD SVG 1.1//EN" "http://www.w3.org/Graphics/SVG/1.1/DTD/svg11.dtd">
<svg version="1.1" xmlns="http://www.w3.org/2000/svg" xmlns:xlink="http://www.w3.org/1999/xlink" x="0px" y="0px" viewBox="0 0 1000 1000" enable-background="new 0 0 1000 1000" xml:space="preserve">
<metadata> Svg Vector Icons : http://www.onlinewebfonts.com/icon </metadata>
<g><path d="M965.7,953.6c-32.4,32.5-85.1,32.5-117.5,0L606.3,736c-60.3,38.7-131.6,61.7-208.5,61.7C183.6,797.7,10,624.1,10,409.9C10,195.7,183.6,22.1,397.8,22.1c214.2,0,387.8,173.6,387.8,387.8c0,76.9-23.1,148.2-61.7,208.5L965.7,836C998.1,868.5,998.1,921.1,965.7,953.6L965.7,953.6z M397.8,102.4C228,102.4,90.3,240.1,90.3,409.9c0,169.8,137.7,307.5,307.5,307.5c169.8,0,307.5-137.7,307.5-307.5C705.3,240.1,567.6,102.4,397.8,102.4L397.8,102.4z"/></g>
</svg>